<svg height="511.999pt" viewBox="1 1 511.999 511.999" width="511.999pt" xmlns="http://www.w3.org/2000/svg"><g fill-rule="evenodd"><path d="m153.476562 354.171875c0-28.695313-23.476562-52.171875-52.171874-52.171875-28.695313 0-52.175782 23.476562-52.175782 52.171875 19.828125 12.660156 52.964844-.164063 68.300782-11.15625 6.75 8.246094 24.476562 15.941406 36.046874 11.15625zm0 0" fill="#999"/><path d="m153.476562 354.171875c-11.570312 4.785156-29.296874-2.90625-36.050781-11.15625-15.332031 10.992187-48.46875 23.816406-68.296875 11.15625v26.089844c0 14.820312 6.261719 28.246093 16.269532 37.765625 9.371093 8.917968 22.027343 14.40625 35.90625 14.40625 13.875 0 26.53125-5.488282 35.902343-14.40625 10.007813-9.519532 16.269531-22.949219 16.269531-37.765625zm0 0" fill="#f4cdac"/><path d="m256 302c-28.695312 0-52.171875 23.476562-52.171875 52.171875 19.824219 12.660156 52.960937-.164063 68.296875-11.15625 6.75 8.25 24.476562 15.941406 36.046875 11.15625 0-28.695313-23.476563-52.171875-52.171875-52.171875zm0 0" fill="#999"/><path d="m272.125 343.011719c-15.335938 10.996093-48.472656 23.820312-68.296875 11.160156v26.085937c0 14.820313 6.261719 28.25 16.269531 37.769532 9.371094 8.914062 22.027344 14.40625 35.902344 14.40625s26.53125-5.492188 35.902344-14.40625c10.007812-9.519532 16.269531-22.949219 16.269531-37.769532v-26.085937c-11.570313 4.785156-29.296875-2.910156-36.046875-11.160156zm0 0" fill="#f4cdac"/><path d="m410.695312 302c-28.695312 0-52.171874 23.476562-52.171874 52.171875 19.824218 12.660156 52.960937-.164063 68.296874-11.15625 6.75 8.25 24.476563 15.941406 36.050782 11.15625 0-28.695313-23.480469-52.171875-52.175782-52.171875zm0 0" fill="#999"/><path d="m426.820312 343.011719c-15.332031 10.996093-48.472656 23.820312-68.296874 11.160156v26.085937c0 14.820313 6.261718 28.25 16.269531 37.769532 9.371093 8.914062 22.027343 14.40625 35.902343 14.40625s26.53125-5.492188 35.902344-14.40625c10.007813-9.519532 16.273438-22.949219 16.273438-37.769532v-26.085937c-11.574219 4.785156-29.300782-2.910156-36.050782-11.160156zm0 0" fill="#f4cdac"/><path d="m410.695312 432.433594c-13.875 0-26.53125-5.488282-35.902343-14.40625-17.160157 7.347656-31.609375 19.796875-41.449219 35.441406-8.839844 14.058594-13.953125 30.695312-13.953125 48.53125h182.609375c0-37.679688-22.824219-70.023438-55.402344-83.96875-9.371094 8.914062-22.023437 14.402344-35.902344 14.402344zm0 0" fill="#a6f074"/><path d="m333.347656 453.46875c-9.835937-15.644531-24.289062-28.09375-41.445312-35.4375-9.371094 8.914062-22.027344 14.402344-35.902344 14.402344s-26.53125-5.488282-35.902344-14.40625c-17.160156 7.347656-31.609375 19.796875-41.441406 35.441406 8.839844 14.058594 13.953125 30.695312 13.953125 48.53125h126.78125c0-17.835938 5.113281-34.472656 13.957031-48.53125zm0 0" fill="#ff836c"/><path d="m192.609375 502c0-17.835938-5.113281-34.472656-13.953125-48.53125-9.839844-15.644531-24.292969-28.09375-41.449219-35.4375-9.371093 8.914062-22.027343 14.402344-35.902343 14.402344-13.878907 0-26.535157-5.488282-35.90625-14.40625-32.574219 13.949218-55.398438 46.292968-55.398438 83.972656zm0 0" fill="#ffd777"/><path d="m356 110c0 55.226562-44.773438 100-100 100s-100-44.773438-100-100c0-55.230469 44.773438-100 100-100s100 44.769531 100 100zm0 0" fill="#73ca5b"/></g><path d="m132.84375 492h-.269531c-5.523438 0-10 4.476562-10 10s4.476562 10 10 10h.269531c5.523438 0 10-4.476562 10-10s-4.476562-10-10-10zm0 0"/><path d="m442.234375 492h-.269531c-5.523438 0-10 4.476562-10 10s4.476562 10 10 10h.269531c5.523437 0 10-4.476562 10-10s-4.476563-10-10-10zm0 0"/><path d="m462.339844 414.84375c6.644531-9.894531 10.53125-21.792969 10.53125-34.582031v-25.972657c0-.03125 0-.058593 0-.089843v-.027344c0-30.878906-22.632813-56.558594-52.175782-61.355469v-21.15625c0-14.335937-11.664062-26-26-26h-128.695312v-26.121094c55.984375-5.070312 100-52.257812 100-109.539062 0-60.652344-49.347656-110-110-110s-110 49.347656-110 110c0 57.28125 44.015625 104.46875 100 109.539062v26.121094h-128.695312c-14.335938 0-26 11.664063-26 26v21.15625c-29.542969 4.796875-52.175782 30.480469-52.175782 61.355469v26.089844c0 12.789062 3.886719 24.6875 10.535156 34.578125-30.539062 18.078125-49.664062 51.011718-49.664062 87.160156 0 5.523438 4.476562 10 10 10h82.609375c5.519531 0 10-4.476562 10-10s-4.480469-10-10-10h-71.996094c3.261719-26.5 19.363281-49.785156 43.21875-62.167969 10.425781 7.902344 23.410157 12.601563 37.472657 12.601563s27.046874-4.699219 37.472656-12.601563c23.855468 12.382813 39.957031 35.667969 43.21875 62.167969h-20.421875c-5.519531 0-10 4.476562-10 9.996094 0 5.523437 4.480469 10 10 10h240.425781c5.523438 0 10-4.476563 10-10 0-5.519532-4.476562-9.996094-10-9.996094h-71.996094c3.261719-26.503906 19.367188-49.785156 43.21875-62.167969 10.429688 7.902344 23.410156 12.601563 37.472656 12.601563s27.046876-4.699219 37.472657-12.601563c23.855469 12.382813 39.957031 35.664063 43.21875 62.167969h-20.421875c-5.523438 0-10 4.476562-10 9.996094 0 5.523437 4.476562 10 10 10h31.035156c5.519531 0 10-4.476563 10-10 0-36.144532-19.125-69.078125-49.660156-87.152344zm-296.339844-304.84375c0-49.628906 40.375-90 90-90s90 40.371094 90 90c0 49.625-40.375 90-90 90s-90-40.375-90-90zm285.957031 235.449219c-6.484375-.910157-14.074219-4.703125-17.398437-8.765625-3.339844-4.085938-9.277344-4.871094-13.566406-1.796875-13.070313 9.371093-36.792969 18.03125-52.023438 13.183593 2.96875-20.371093 20.546875-36.070312 41.726562-36.070312 20.265626 0 37.230469 14.367188 41.261719 33.449219zm-350.652343-33.449219c20.265624 0 37.230468 14.367188 41.261718 33.449219-6.484375-.910157-14.074218-4.703125-17.398437-8.765625-3.339844-4.085938-9.28125-4.871094-13.566407-1.796875-13.070312 9.371093-36.789062 18.03125-52.023437 13.183593 2.96875-20.375 20.546875-36.070312 41.726563-36.070312zm0 110.433594c-10.992188 0-21.015626-4.230469-28.527344-11.144532-.320313-.351562-.660156-.675781-1.019532-.972656-7.785156-7.65625-12.628906-18.300781-12.628906-30.054687v-11.734375c3.351563.621094 6.789063.90625 10.269532.90625 16.800781 0 34.496093-6.609375 46.996093-13.878906 7.1875 5.28125 17.21875 9.519531 27.085938 10.027343v14.679688c0 11.742187-4.832031 22.378906-12.605469 30.035156-.375.304687-.726562.640625-1.054688 1.003906-7.515624 6.90625-17.53125 11.132813-28.515624 11.132813zm51.640624-7.589844c6.648438-9.894531 10.53125-21.792969 10.53125-34.582031v-25.972657c0-.03125 0-.058593 0-.089843v-.027344c0-30.878906-22.628906-56.558594-52.171874-61.355469v-21.15625c0-3.253906 2.746093-6 6-6h128.695312v27.15625c-29.542969 4.796875-52.175781 30.480469-52.175781 61.355469v26.089844c0 12.789062 3.886719 24.6875 10.53125 34.578125-9.730469 5.761718-18.390625 13.082031-25.691407 21.730468-7.214843-8.53125-15.871093-15.898437-25.71875-21.726562zm156.953126 77.15625h-107.796876c-1.335937-13.550781-5.355468-26.472656-11.640624-38.117188 7.414062-10.105468 16.96875-18.296874 28.058593-24.054687 10.429688 7.90625 23.414063 12.605469 37.480469 12.605469s27.050781-4.699219 37.480469-12.605469c11.089843 5.757813 20.644531 13.949219 28.058593 24.054687-6.285156 11.644532-10.304687 24.566407-11.640624 38.117188zm-96.074219-123.472656c3.351562.621094 6.789062.902344 10.269531.902344 16.800781 0 34.496094-6.609376 46.996094-13.875 7.1875 5.277343 17.21875 9.515624 27.085937 10.027343v14.679688c0 11.746093-4.832031 22.382812-12.609375 30.039062-.371094.304688-.722656.640625-1.050781 1-7.511719 6.90625-17.527344 11.132813-28.515625 11.132813-10.992188 0-21.011719-4.226563-28.523438-11.140625-.324218-.351563-.664062-.679688-1.027343-.980469-7.785157-7.65625-12.625-18.296875-12.625-30.050781zm66.039062-31.84375c-3.339843-4.085938-9.277343-4.871094-13.566406-1.796875-13.070313 9.371093-36.792969 18.03125-52.023437 13.183593 2.96875-20.371093 20.546874-36.070312 41.726562-36.070312 20.265625 0 37.230469 14.367188 41.261719 33.449219-6.484375-.914063-14.074219-4.703125-17.398438-8.765625zm53.472657 99.886718c-7.300782-8.648437-15.960938-15.96875-25.691407-21.730468 6.644531-9.894532 10.53125-21.792969 10.53125-34.582032v-25.96875c0-.03125 0-.0625 0-.09375v-.023437c0-30.878906-22.632812-56.558594-52.175781-61.359375v-27.152344h128.695312c3.253907 0 6 2.746094 6 6v21.152344c-29.542968 4.800781-52.171874 30.480469-52.171874 61.359375v26.085937c0 12.792969 3.882812 24.6875 10.53125 34.582032-9.847657 5.832031-18.503907 13.199218-25.71875 21.730468zm48.832031-25.285156c-.320313-.347656-.65625-.671875-1.015625-.964844-7.789063-7.65625-12.628906-18.300781-12.628906-30.058593v-11.734375c3.347656.621094 6.785156.902344 10.265624.902344 16.800782 0 34.496094-6.609376 46.996094-13.875 7.1875 5.277343 17.21875 9.515624 27.085938 10.027343v14.679688c0 11.746093-4.832032 22.378906-12.609375 30.035156-.371094.304687-.722657.640625-1.050781 1.003906-7.511719 6.90625-17.53125 11.132813-28.515626 11.132813-10.992187 0-21.015624-4.230469-28.527343-11.148438zm0 0"/><path d="m263.066406 147.925781c-3.90625-3.90625-10.234375-3.90625-14.140625 0s-3.90625 10.238281 0 14.140625c3.90625 3.90625 10.234375 3.90625 14.140625 0 3.90625-3.902344 3.90625-10.234375 0-14.140625zm0 0"/><path d="m305.496094 105.5c3.90625 3.90625 10.238281 3.90625 14.144531 0 3.902344-3.902344 3.902344-10.234375 0-14.140625-17-17-39.601563-26.359375-63.640625-26.359375s-46.640625 9.359375-63.640625 26.359375c-3.902344 3.902344-3.902344 10.234375 0 14.140625 1.953125 1.953125 4.511719 2.929688 7.070313 2.929688 2.558593 0 5.121093-.976563 7.074218-2.929688 13.21875-13.21875 30.796875-20.5 49.496094-20.5s36.277344 7.28125 49.496094 20.5zm0 0"/><path d="m277.214844 133.785156c1.949218 1.953125 4.511718 2.929688 7.070312 2.929688s5.117188-.976563 7.070313-2.929688c3.90625-3.90625 3.90625-10.238281 0-14.140625-19.496094-19.496093-51.214844-19.496093-70.710938 0-3.90625 3.902344-3.90625 10.234375 0 14.140625s10.234375 3.90625 14.140625 0c11.699219-11.695312 30.730469-11.695312 42.429688 0zm0 0"/></svg>