<?xml version="1.0" encoding="UTF-8"?>
<!-- Generator: Adobe Illustrator 22.1.0, SVG Export Plug-In . SVG Version: 6.00 Build 0)  -->
<svg version="1.1" id="Layer_1" xmlns="http://www.w3.org/2000/svg" xmlns:xlink="http://www.w3.org/1999/xlink" x="0px" y="0px" viewBox="0 0 512.139 80" enable-background="new 0 0 512.139 80" xml:space="preserve">
<path fill="#273A7C" d="M512.138,31.898c-0.041-0.926-1.72,0.08-2.646,0.124c-3.645,0.165-6.744,0.84-10.393,0.826  c-1.771-0.01-3.221-0.916-4.991-0.836c-2.164,0.098-4.106,0.522-6.191-0.071c-0.296-0.082-0.81-0.498-0.561-0.679  c1.099-0.81,2.517-0.333,3.865-0.53c1.752-0.257,6.305-0.214,4.895-1.285c-1.299-0.983-5.82,0.6-4.62-0.496  c1.14-1.042,5.093-0.184,4.179-1.43c-0.881-1.195-2.758-0.049-4.243,0.018c-5.189,0.237-9.626,1.134-14.815,0.851  c-8.275-0.449-15.341,1.23-23.619,1.609c-2.419,0.11-4.432,1.15-6.85,1.018c-0.804-0.043-1.524,0.014-2.285,0.282  c-3.564,1.246-7.001,0.471-10.741,1.018c-8.751,1.279-16.359,1.895-25.2,1.856c-0.83-0.004-2.725-0.351-2.166-0.963  c1.222-1.338,3.296-0.677,5.085-0.938c3.306-0.485,6.229,0.049,9.528-0.436c8.692-1.271,16.335-0.575,25.026-1.846  c4.288-0.626,8.029-0.641,12.316-1.269c9.993-1.462,18.693-1.615,28.683-3.076c0.602-0.086,2.009-0.367,1.558-0.777  c-0.959-0.875-2.409,0.112-3.708,0.169c-4.647,0.214-17.693,1.024-13.281-0.455c2.813-0.946,5.514-0.31,8.453-0.74  c7.294-1.067,13.699-0.946,20.932-2.368c0.545-0.11,1.711-0.326,1.381-0.769c-0.914-1.246-2.866,0.129-4.412,0.2  c-4.761,0.218-8.867,0.288-13.618-0.086c-0.39-0.031-1.414-0.112-1.075-0.302c1.246-0.7,2.658-0.196,4.041-0.538  c2.472-0.614,4.883,0.016,7.204-1.036c0.253-0.114,0.555-0.581,0.32-0.722c-1.43-0.861-3.096,0.143-4.763,0.22  c-11.796,0.538-21.93,0.763-33.689,1.889c-15.945,1.526-29.785,1.175-45.638,3.494c-6.364,0.932-11.908,0.957-18.315,1.54  c-5.112,0.467-9.499,1.042-14.629,1.022c-0.806-0.004-2.525-0.071-2.158-0.787c0.691-1.35,2.678-1.008,4.194-1.077  c23.978-1.093,44.375-4.498,68.351-5.591c11.743-0.538,21.76-1.82,33.463-2.943c2.646-0.253,5.024,0.065,7.572-0.696  c0.881-0.263,2.617-1.336,1.86-1.854c-1.226-0.834-2.758,0.053-4.235,0.194c-6.276,0.6-11.704,1.781-17.981,1.173  c-0.375-0.037-1.169,0.233-1.067-0.129c0.51-1.809,3.735-0.01,5.254-1.122c0.206-0.153,0.039-0.647-0.21-0.698  c-0.665-0.133-1.257,0.126-1.938,0.088c-0.683-0.035-1.285-0.09-1.94,0.086c-1.014,0.277-1.96,0.298-3.001,0.139  c-7.702-1.181-14.415,1.365-22.201,1.718c-6.117,0.279-11.364,0.443-17.485,0.443c-9.958,0.002-18.429,1.548-28.377,2.001  c-1.236,0.057-2.293,0.165-3.527,0.161c-0.612-0.004-1.868-0.077-1.62-0.634c0.669-1.507,2.907-1.028,4.539-1.269  c2.325-0.337,4.361-0.316,6.69-0.659c3.739-0.543,6.968-0.834,10.731-1.193c0.508-0.049,1.862-0.212,1.395-0.416  c-1.583-0.704-3.219-0.031-4.948,0.049c-5.124,0.231-9.563,1.618-14.637,0.844c-0.22-0.033-0.74-0.222-0.545-0.328  c0.445-0.247,1.862-0.212,1.393-0.42c-1.948-0.865-3.839,1.026-5.948,1.334c-2.815,0.41-5.285,0.349-8.126,0.192  c-0.173-0.008-0.194-0.333-0.371-0.333c-0.585-0.008-0.993,0.459-1.564,0.6c-0.537,0.135-1.032,0.047-1.587,0.073  c-0.371,0.018-0.704,0.159-1.059,0.047c-0.233-0.075,0.18-0.577-0.033-0.704c-1.061-0.641-2.281,0.335-3.51,0.514  c-1.293,0.188-2.389,0.592-3.69,0.522c-1.673-0.09-6.342,0.053-4.749,0.569c1.124,0.363,4.469-0.224,3.366,0.2  c-2.248,0.867-4.477,0.504-6.88,0.312c-0.392-0.031-1.416-0.112-1.075-0.302c0.771-0.434,3.253-0.284,2.444-0.643  c-1.199-0.53-4.787,0.416-3.731-0.359c1.348-0.989,3.096-0.141,4.767-0.218c15.576-0.71,59.953-4.679,44.378-3.969  c-1.919,0.09-3.574,0.743-5.463,0.428c-0.332-0.057-1.126-0.069-0.9-0.312c0.302-0.33,1.434-0.575,1.028-0.755  c-1.318-0.585-2.68,0.375-4.027,0.893c-0.636,0.243-2.537,0.42-1.942,0.086c0.435-0.241,1.571-0.426,1.206-0.759  c-0.42-0.384-1.038-0.308-1.607-0.282c-0.222,0.01-0.451-0.532-0.541-0.328c-0.161,0.357-0.108,0.742-0.306,1.077  c-1.391,2.303-4.844,1.458-7.531,1.581c-12.104,0.553-22.462,1.805-34.578,1.752c-5.762-0.026-22.152,0.587-16.459-0.308  c1.348-0.216,5.036,0.171,3.867-0.53c-1.414-0.853-5.966,0.124-4.636-0.853c1.344-0.989,3.094-0.141,4.763-0.218  c1.469-0.067,5.181-0.353,4.01-1.244c-0.889-0.675-2.072-0.147-3.19-0.204c-2.538-0.141-4.826,0.526-7.26-0.202  c-1.422-0.426-2.843-0.281-4.116-1.051c-0.116-0.071-0.298-0.257-0.192-0.343c0.955-0.787,4.455,0.849,3.537,0.016  c-0.306-0.279-1.446-0.279-1.085-0.481c1.571-0.875,3.325-0.326,5.104-0.587c2.201-0.32,4.147,0.033,6.348-0.288  c1.718-0.251,3.194-0.671,4.926-0.577c1.726,0.092,3.209-0.235,4.94-0.226c1.067,0.004,1.909-0.618,2.974-0.667  c0.257-0.012,0.465,0.114,0.716,0.143c0.182,0.026-0.157,0.481,0.022,0.528c0.304,0.088,0.561-0.22,0.875-0.214  c0.94,0.016,1.744-0.177,2.633-0.473c1.057-0.355,2.109,0.175,3.176-0.145c0.663-0.198,1.234-0.453,1.924-0.441  c0.277,0.006,0.114,0.636,0.385,0.691c0.767,0.155,1.324-0.618,2.083-0.802c0.481-0.12,0.922,0.006,1.41-0.065  c0.677-0.098,1.265-0.022,1.942-0.088c0.245-0.026,0.459-0.02,0.704-0.033c0.887-0.039,1.675-0.212,2.448-0.641  c0.12-0.069,0.481-0.167,0.345-0.192c-1.638-0.33-3.098,0.308-4.767,0.216c-1.356-0.073-2.521,0.251-3.88,0.177  c-0.186-0.01-0.345,0.016-0.532,0.026c-2.346,0.106-4.373,0.371-6.711,0.129c-0.922-0.096-1.711,0.255-2.637,0.296  c-4.139,0.188-7.698,0.587-11.833,0.365c-0.316-0.018-0.559,0.233-0.875,0.216c-1.465-0.082-4.361,0.573-4.11-0.873  c0.055-0.306,0.51-0.424,0.496-0.73c-0.006-0.188,0.539,0.161,0.534-0.024c-0.057-1.201-2.189-0.49-3.386-0.555  c-3.357-0.18-12.636,0.763-9.575-0.624c2.76-1.252,5.632,0.096,8.663-0.043c2.36-0.106,8.832-0.051,6.672-1.008  c-1.471-0.653-2.994-0.216-4.604-0.143c-18.07,0.826-33.601-1.65-51.666-0.826c-5.509,0.251-10.24-0.345-15.755-0.345  c-32.749,0.006-60.851-2.174-93.567-0.683c-32.549,1.483-60.425,3.882-93.008,3.886C69.456,4.646,54.841,4.801,38.143,2.245  C28.542,0.777,20.06,1.521,10.388,2.449C7.179,2.755,4.291,5.209,3.23,8.257c-1.465,4.206,1.31,8.4,0.226,12.722  c-1.161,4.628-3.027,8.469-3.288,13.236c-0.485,8.981-0.071,17.142,3.284,25.487c1.016,2.531,3.101,4.016,4.532,6.336  c2.293,3.721,7.645,2.976,11.213,5.501c2.287,1.615,4.302,3.319,7.068,3.743c9.948,1.522,18.595,1.903,28.602,2.941  c14.87,1.544,27.759,0.783,42.685,1.589c18.399,0.999,34.146-2.264,52.553-3.103c19.884-0.906,36.926-2.232,56.832-2.238  c13.871-0.002,25.775-0.434,39.625,0.316c4.014,0.218,7.433-0.893,11.455-0.873c3.833,0.014,7.137,0.218,10.954-0.149  c2.291-0.218,4.2-1.128,6.497-1c4.63,0.249,8.732,0.51,13.232-0.604c3.845-0.953,7.531,0.265,11.27-1.044  c2.697-0.948,5.407-0.226,8.074-1.254c0.261-0.1,0.895-0.198,0.693-0.386c-0.494-0.445-2.142-0.053-1.797-0.622  c0.402-0.671,1.318-0.957,2.083-0.802c0.218,0.045,0.394,0.167,0.545,0.33c0.218,0.23-0.324,0.636-0.133,0.889  c0.443,0.608,1.367-0.267,2.097-0.447c1.275-0.314,2.374-0.638,3.684-0.698c0.679-0.029,2.272,0.504,1.94-0.088  c-0.135-0.241-0.963-0.184-0.722-0.322c0.871-0.487,2.852,0.518,2.807-0.481c-0.012-0.277-0.598-0.512-0.385-0.689  c1.195-0.983,2.872-0.059,4.41-0.202c2.162-0.196,4.139,0.145,6.16-0.632c0.314-0.12,1.006-0.092,0.869-0.394  c-0.171-0.379-0.857-0.728-0.577-1.034c1.544-1.693,4.245-0.322,6.509-0.651c4.59-0.671,8.606-0.392,13.238-0.604  c3.152-0.143,5.83-0.62,8.981-0.763c0.124-0.004,0.23-0.01,0.353-0.016c4.893-0.222,8.999-1.471,13.889-1.693  c8.918-0.408,16.418-2.517,25.33-2.923c12.877-0.589,23.715-3.557,36.588-4.143c9.899-0.451,18.252-2.599,28.153-3.052  c7.243-0.33,13.41-1.305,20.581-2.352c0.563-0.084,2.093-0.196,1.573-0.428c-1.921-0.853-3.898,0.179-6.001,0.275  c-5.314,0.243-9.842,0.891-15.143,1.397c-1.72,0.167-6.597,0.722-4.938,0.226c0.953-0.286,3.51-0.775,2.599-1.181  c-1.991-0.883-4.059,0.363-6.144,0.987c-0.532,0.159-1.791,0.4-1.381,0.771c0.288,0.265,1.416,0.114,1.075,0.304  c-1.24,0.696-2.692,0.573-4.059,0.186c-0.214-0.063-0.328-0.279-0.543-0.328c-1.691-0.402-6.58,0.043-4.924,0.577  c1.004,0.326,4.004-0.165,3.017,0.214c-2.313,0.891-4.596,0.318-7.045,0.675c-7.602,1.11-14.168,1.711-21.815,2.411  c-12.953,1.177-24.01,2.625-36.961,3.802c-4.806,0.441-8.9,1.385-13.728,1.336c-0.451-0.006-1.558,0.037-1.254-0.298  c0.716-0.781,1.932-0.392,2.986-0.488c18.688-1.705,34.642-3.823,53.32-5.614c2.903-0.277,5.35-1.242,8.261-1.083  c0.559,0.031,1.948,0.175,1.581-0.247c-0.204-0.231-1-0.345-0.732-0.496c1.571-0.877,3.327-0.328,5.103-0.587  c1.658-0.241,3.288,0.245,4.747-0.569c0.194-0.112,0.494-0.396,0.328-0.545c-1.416-1.295-3.566,0.149-5.462,0.424  c-7.227,1.057-13.499,1.346-20.773,2.011c-1.485,0.135-5.64,0.375-4.251-0.161c2.195-0.846,4.345-0.445,6.691-0.659  c15.551-1.418,28.765-3.782,44.32-5.203c8.159-0.743,15.088-1.993,23.198-3.178c7.415-1.085,13.82-1.669,21.285-2.387  c1.15-0.108,4.192-0.555,3.135-1.026c-1.299-0.579-2.627,0.296-4.051,0.363c-8.151,0.371-15.125,1.856-23.274,1.412  c-0.704-0.039-1.287-0.247-1.966-0.439c-0.179-0.049,0.137-0.439-0.025-0.53c-1.56-0.879-3.325,0.153-5.114,0.235  c-1.77,0.08-6.27,0.39-4.989-0.838c1.787-1.711,4.592-0.316,7.041-0.673c7.925-1.157,14.807-1.609,22.666-3.154  c1.734-0.341,3.156-0.942,4.893-1.285c1.748-0.343,3.129-1.112,4.681-1.981C511.564,32.13,512.154,32.232,512.138,31.898   M330.171,66.364c-0.022-0.524-1.893,0.449-1.387,0.594C329.292,67.102,330.199,66.892,330.171,66.364 M338.242,64.938  c-0.033-0.694-1.267-0.23-1.958-0.263c-1.201-0.067-4.345,0.235-3.319,0.855c0.435,0.263,0.951,0.1,1.424,0.286  c1.165,0.463,2.762,1.338,3.555,0.371c0.202-0.245-0.2-0.561-0.216-0.877C337.722,65.091,338.252,65.158,338.242,64.938   M342.091,71.834c-0.024-0.496-0.918-0.133-1.42-0.112c-0.412,0.02-1.375,0.343-1.034,0.577  C340.359,72.791,342.13,72.706,342.091,71.834 M344.943,64.63c-0.035-0.865-1.609,0.031-2.47,0.114  c-0.567,0.055-1.848-0.071-1.569,0.424c0.483,0.863,1.846,0.039,2.821-0.128C344.17,64.962,344.967,65.079,344.943,64.63   M343.129,16.973c-0.02-0.39-1.432,0.418-1.042,0.398C342.475,17.356,343.146,17.364,343.129,16.973 M344.747,13.715  c-0.012-0.275-0.689,0.384-0.689,0.384S344.759,13.992,344.747,13.715 M347.484,65.931c-0.063-1.363-2.54-0.306-3.902-0.179  c-0.661,0.067-2.225,0.339-1.732,0.789c0.957,0.873,2.413-0.053,3.706-0.171C346.246,66.309,347.513,66.621,347.484,65.931   M348.447,71.545c-0.035-0.745-1.387-0.151-2.127-0.08c-0.526,0.053-1.871,0.379-1.387,0.592c1.016,0.451,2.203,0.398,3.176-0.145  C348.259,71.828,348.453,71.72,348.447,71.545 M346.815,4.781c-0.424-0.755-1.64-0.137-2.472,0.112  c-0.394,0.12-1.34,0.296-1.034,0.575c0.824,0.753,2.209,0.577,3.182,0.033C346.736,5.366,346.95,5.021,346.815,4.781   M348.274,13.554c-0.033-0.753-2.658-0.057-2.097,0.449C346.73,14.512,348.31,14.306,348.274,13.554 M348.229,4.715  c-0.153-0.269-0.948,0.404-0.683,0.563C347.813,5.438,348.378,4.987,348.229,4.715 M350.024,13.123  c-0.133-0.243-0.133,0.518-0.32,0.72C349.518,14.047,350.159,13.362,350.024,13.123 M350.538,16.634  c-0.041-0.865-1.609,0.033-2.47,0.114c-0.508,0.049-1.862,0.21-1.397,0.416c1.132,0.502,2.374,0.282,3.527-0.161  C350.366,16.94,350.546,16.809,350.538,16.634 M350.601,2.486c-0.039-0.802-1.526-0.126-2.295,0.104  c-0.426,0.128-1.358,0.455-1.028,0.753c0.647,0.59,1.638-0.151,2.456-0.463C350.046,2.761,350.617,2.82,350.601,2.486   M351.754,4.556c-0.026-0.571-1.042-0.383-1.605-0.281c-0.473,0.084-1.244,0.849-0.834,1.099  C350.091,5.837,351.798,5.456,351.754,4.556 M354.534,11.147c-0.043-0.926-1.722,0.078-2.648,0.122  c-0.826,0.037-2.878,0.078-2.274,0.634c1.099,1,2.878,0.245,4.23-0.369C354.093,11.42,354.546,11.424,354.534,11.147   M357.606,70.772c-0.022-0.414-1.414,0.41-1.036,0.579C356.949,71.522,357.624,71.186,357.606,70.772 M356.378,12.83  c-0.037-0.8-1.514-0.088-2.297,0.106c-0.596,0.149-1.893,0.802-1.36,1.124c0.904,0.547,2.101,0.094,2.98-0.488  C355.992,13.378,356.392,13.181,356.378,12.83 M359.519,4.201c-0.128-0.281-0.877,0.32-0.683,0.561  C359.034,4.999,359.648,4.483,359.519,4.201 M365.824,10.631c-0.041-0.863-1.611,0.031-2.47,0.114  c-0.836,0.08-3.031,0.469-2.264,0.81c0.577,0.255,1.124-0.341,1.746-0.432C363.89,10.971,365.871,11.691,365.824,10.631   M372.241,11.755c-0.027-0.628-2.325,0.177-1.746,0.434C371.07,12.446,372.27,12.383,372.241,11.755 M373.653,11.691  c-0.014-0.279-0.689,0.384-0.689,0.384S373.667,11.965,373.653,11.691 M373.524,1.087c-0.024-0.512-1.86,0.208-1.395,0.416  C372.594,1.711,373.545,1.595,373.524,1.087 M376.121,11.579c-0.018-0.39-1.432,0.418-1.042,0.402  C375.47,11.961,376.139,11.969,376.121,11.579 M383.768,62.861c-0.047-0.987-1.879-0.153-2.825,0.129  c-0.375,0.112-1.401,0.241-1.044,0.4c1.071,0.477,2.329,0.418,3.351-0.151C383.446,63.129,383.776,63.082,383.768,62.861   M382.154,4.23c-0.035-0.804-1.532-0.151-2.295,0.104c-0.375,0.126-0.52,0.528-0.851,0.745c-0.145,0.098,0.439,0.179,0.369,0.335  c-0.11,0.253-0.94,0.273-0.687,0.386c0.798,0.355,1.689-0.041,2.454-0.467c0.218-0.12-0.214-0.538-0.033-0.704  c0.23-0.208,0.645,0.157,0.885-0.041C382.101,4.503,382.161,4.367,382.154,4.23 M384.576,10.837  c-0.012-0.275-0.687,0.386-0.687,0.386S384.59,11.114,384.576,10.837 M385.024,5.16c-0.029-0.643-2.119,0.09-1.738,0.61  C383.666,6.288,385.055,5.805,385.024,5.16 M387.27,0.106c-0.018-0.39-1.432,0.42-1.044,0.402  C386.616,0.491,387.287,0.499,387.27,0.106 M387.766,3.269c-0.487-1.271-2.76-0.596-3.88,0.177  c-0.182,0.126-0.337,0.322-0.328,0.545c0.008,0.194,0.381,0.031,0.536,0.151c0.312,0.235,0.691,0.241,1.077,0.302  c0.31,0.053,0.581-0.096,0.875-0.214C386.685,3.969,388.015,3.914,387.766,3.269 M389.902,3.522  c-0.024-0.508-1.773,0.075-1.397,0.42C388.882,4.283,389.926,4.032,389.902,3.522 M391.988,10.5  c-0.269-0.483-1.838,0.461-1.379,0.771C391.064,11.583,392.256,10.984,391.988,10.5 M392.774,4.452  c-0.016-0.306-0.993,0.577-0.681,0.565C392.398,5.001,392.786,4.764,392.774,4.452 M396.013,5.721  c-0.014-0.277-0.691,0.383-0.691,0.383S396.025,5.998,396.013,5.721 M398.485,13.387c-0.012-0.277-0.691,0.386-0.691,0.386  S398.497,13.662,398.485,13.387 M398.051,3.857c-0.014-0.275-0.691,0.384-0.691,0.384S398.063,4.136,398.051,3.857 M400.074,9.425  c-0.267-0.359-1.436,0.575-1.026,0.753C399.452,10.359,400.337,9.784,400.074,9.425 M400.808,2.319  c-0.373-0.82-2.972,0.092-2.438,0.816C398.905,3.863,401.182,3.139,400.808,2.319 M406.681,7.002  c-0.29-0.263-0.694,1.095-0.304,1.077C406.769,8.059,406.97,7.263,406.681,7.002 M409.249,9.007c-0.024-0.51-1.862,0.21-1.395,0.416  C408.317,9.631,409.271,9.517,409.249,9.007 M409.889,7.563c-0.016-0.377-1.232-0.106-1.05,0.224  C409.023,8.114,409.906,7.94,409.889,7.563 M412.345,7.098c-0.171-0.308-1.006,0.622-0.675,0.736  C411.999,7.949,412.511,7.404,412.345,7.098 M413.5,1.386c-0.514-0.916-1.952,0.09-3.003,0.139c-1.346,0.061-4.812,0.53-3.655,1.226  c0.849,0.514,1.813-0.386,2.805-0.479C411.024,2.137,414.173,2.594,413.5,1.386 M414.685,11.938  c-0.049-1.055-1.936,0.339-2.984,0.492c-1.838,0.269-7.064,0.088-5.277,0.592c2.201,0.626,4.284,0.145,6.527-0.296  C413.61,12.599,414.714,12.607,414.685,11.938 M416.292,8.33c-0.029-0.679-1.395-0.314-1.942,0.09  c-0.2,0.147-0.206,0.638,0.031,0.704c0.608,0.173,1.201-0.124,1.748-0.432C416.252,8.626,416.3,8.469,416.292,8.33 M419.98,11.698  c-0.033-0.74-1.407-0.114-2.117,0.096c-0.398,0.12-1.309,0.269-1.034,0.579C417.573,13.223,420.031,12.828,419.98,11.698   M419.931,10.643c-0.049-1.112-2.074-0.018-3.174,0.145c-0.522,0.075-1.871,0.379-1.387,0.592c1.073,0.477,2.197-0.063,3.343-0.332  C419.15,10.949,419.952,11.09,419.931,10.643 M420.46,6.727c-0.018-0.39-1.432,0.418-1.044,0.402  C419.809,7.11,420.478,7.12,420.46,6.727 M420.201,1.081c-0.053-1.181-2.274-0.649-3.366-0.202  c-0.402,0.167-1.165,0.632-0.842,0.924c0.545,0.5,1.381,0.012,2.117-0.096C418.866,1.597,420.239,1.845,420.201,1.081   M420.959,2.107c-0.037-0.804-1.52-0.106-2.297,0.104c-0.479,0.131-1.571,0.428-1.203,0.761c0.6,0.549,1.499-0.222,2.278-0.455  C420.17,2.388,420.978,2.557,420.959,2.107 M421.873,6.665c-0.014-0.279-0.691,0.384-0.691,0.384S421.885,6.939,421.873,6.665   M422.834,12.277c-0.027-0.63-2.181-0.759-1.779-0.273c0.249,0.304,0.687,0.259,1.077,0.304  C422.375,12.338,422.846,12.524,422.834,12.277 M425.129,0.503c-0.014-0.279-0.69,0.386-0.69,0.386S425.141,0.777,425.129,0.503   M426.316,11.059c-0.022-0.5-0.914,0.133-1.405,0.239c-0.404,0.086-1.373,0.343-1.036,0.577c0.734,0.498,1.85,0.012,2.448-0.64  C426.367,11.188,426.318,11.12,426.316,11.059 M427.791,12.405c-0.012-0.277-0.689,0.384-0.689,0.384S427.805,12.679,427.791,12.405   M429.171,11.636c-0.014-0.277-0.689,0.384-0.689,0.384S429.184,11.912,429.171,11.636 M430.936,11.555  c-0.02-0.392-1.434,0.418-1.044,0.402C430.281,11.938,430.954,11.944,430.936,11.555 M431.383,5.874  c-0.014-0.308-0.989,0.579-0.679,0.563C431.013,6.423,431.399,6.184,431.383,5.874 M431.126,0.23  c-0.012-0.277-0.689,0.384-0.689,0.384S431.14,0.503,431.126,0.23 M432.923,8.634c-0.016-0.39-1.43,0.42-1.042,0.402  C432.272,9.019,432.943,9.023,432.923,8.634 M433.567,7.192c-0.018-0.392-1.434,0.418-1.046,0.398  C432.912,7.575,433.586,7.583,433.567,7.192 M435.122,10.304c-0.63-0.722-3.492,0.436-2.615,0.824  c0.689,0.306,1.405,0.437,2.13,0.255c0.194-0.045,0.41-0.041,0.524-0.198c0.114-0.159-0.129-0.339-0.202-0.522  C434.913,10.533,435.213,10.406,435.122,10.304 M437.341,51.223c-0.018-0.414-1.412,0.41-1.034,0.577  C436.686,51.969,437.363,51.637,437.341,51.223 M435.268,5.697c-0.024-0.526-1.822,0.298-1.387,0.594  C434.318,6.59,435.291,6.225,435.268,5.697 M437.783,6.645c-0.133-0.241-0.131,0.518-0.318,0.722  C437.278,7.567,437.92,6.886,437.783,6.645 M437.688,4.526c-0.027-0.569-1.995,0.041-1.571,0.424  C436.539,5.338,437.714,5.099,437.688,4.526 M438.091,5.57c-0.035-0.779-2.662,0.275-2.085,0.802  C436.58,6.898,438.126,6.351,438.091,5.57 M440.515,51.078c-0.037-0.812-3.056,0.235-2.276,0.457  C439.02,51.757,440.553,51.89,440.515,51.078 M440.672,7.926c-0.02-0.392-1.43,0.42-1.042,0.402  C440.021,8.31,440.69,8.318,440.672,7.926 M442.565,10.668c-0.016-0.392-1.432,0.418-1.044,0.402  C441.912,11.051,442.583,11.059,442.565,10.668 M443.303,11.343c-0.012-0.275-0.687,0.386-0.687,0.386S443.317,11.62,443.303,11.343   M448.356,5.811c-0.027-0.61-1.96,0.318-1.556,0.777C447.201,7.045,448.384,6.417,448.356,5.811 M453.19,49.793  c-0.012-0.277-0.689,0.384-0.689,0.384S453.204,50.07,453.19,49.793 M453.857,2.374c-0.014-0.275-0.689,0.386-0.689,0.386  S453.871,2.653,453.857,2.374 M456.072,4.397c-0.045-0.989-1.836,0.035-2.825,0.128c-0.524,0.053-1.775,0.239-1.385,0.594  c0.912,0.836,2.393,0.175,3.519-0.337C455.634,4.668,456.084,4.671,456.072,4.397 M457.531,5.391  c-0.024-0.553-1.92,0.661-1.379,0.771C456.696,6.27,457.557,5.943,457.531,5.391 M457.773,2.906  c-0.014-0.277-0.689,0.383-0.689,0.383S457.786,3.182,457.773,2.906 M458.189,4.301c-0.02-0.449-1.552,0.106-1.222,0.408  C457.302,5.013,458.208,4.748,458.189,4.301 M465.249,3.977c-0.031-0.689-2.436-0.024-1.926,0.441  C463.832,4.885,465.28,4.669,465.249,3.977 M469.115,3.445c-0.02-0.39-1.434,0.42-1.046,0.402  C468.46,3.83,469.133,3.838,469.115,3.445 M472.641,3.284c-0.029-0.679-1.307-0.155-1.94,0.09c-0.129,0.049-0.271,0.284-0.163,0.361  C471.163,4.157,472.674,4.038,472.641,3.284 M482.861,2.468c-0.041-0.926-1.722,0.077-2.648,0.12  c-1.016,0.047-3.77,0.557-2.794,0.832c0.904,0.257,1.699-0.43,2.635-0.471C481.051,2.902,482.906,3.463,482.861,2.468   M486.037,2.323c-0.037-0.812-3.062,0.235-2.28,0.455C484.543,3.002,486.075,3.133,486.037,2.323 M401.932,11.463  c0.371,0.057-1.356,0.267-1.057,0.049C401.173,11.29,401.567,11.406,401.932,11.463 M355.462,16.055  c0.965,0.335-1.822,0.51-2.792,0.834c-3.925,1.318-7.68,0.643-11.821,0.539c-0.124-0.004-0.233,0.037-0.353,0.016  c-0.814-0.135-2.283,0.398-2.321-0.426c-0.055-1.236,2.287-0.279,3.523-0.335c4.63-0.21,8.638-1.224,13.234-0.602  C355.119,16.106,355.288,15.995,355.462,16.055 M359.344,15.879c-0.124,0.006-0.235-0.02-0.351,0.016  C358.872,15.93,359.468,15.873,359.344,15.879 M360.435,16.538c-0.124,0.004-0.233-0.022-0.353,0.014  C359.964,16.587,360.559,16.53,360.435,16.538 M380.278,17.401c-0.124,0.004-0.233-0.022-0.351,0.016  C379.809,17.452,380.404,17.395,380.278,17.401"/>
</svg>